<?xml version="1.0" encoding="utf-8"?>
<!-- Generator: Adobe Illustrator 19.0.0, SVG Export Plug-In . SVG Version: 6.00 Build 0)  -->
<svg version="1.1" id="Layer_1" xmlns="http://www.w3.org/2000/svg" xmlns:xlink="http://www.w3.org/1999/xlink" x="0px" y="0px"
	 viewBox="-128 370.8 350 26.9" style="enable-background:new -128 370.8 350 26.9;" xml:space="preserve">
<style type="text/css">
	.st0{fill:#292929;}
</style>
<g>
	<g>
		<g>
			<path class="st0" d="M-38.8,372.2c20.1-0.3,40.3,0.4,59.9,0.4c63.5,0,124.5-0.3,181.9,0c4.1,0,10.9,0.1,15.2,0
				c8.8-0.1-0.1-1.1-4.3-1.2c-26.4-0.9-55.3-0.7-78.7-0.4c-85.9,1.1-171-1.3-253.4,0.8c-2.9,0.1-15.1,0.4-7.2,0.7
				c8,0.3,24,0.1,27.4,0.1C-78.9,372.4-59,372.5-38.8,372.2z M-46,372c0.4,0.1-2.4,0.4-2.9,0.2C-49.2,372.1-46.5,371.8-46,372z"/>
		</g>
	</g>
	<g>
		<g>
			<g>
				<path class="st0" d="M132.8,396.2c-20.1,0.3-40.3-0.4-59.9-0.4c-63.5,0-124.5,0.3-181.9,0c-4.1,0-10.9-0.1-15.2,0
					c-8.8,0.1,0.1,1.1,4.3,1.2c26.4,0.9,55.3,0.7,78.7,0.4c85.9-1.1,171,1.3,253.4-0.8c2.9-0.1,15.1-0.4,7.2-0.7
					c-8-0.3-24-0.1-27.4-0.1C172.9,396.1,153,395.9,132.8,396.2z M140,396.5c-0.4-0.1,2.4-0.4,2.9-0.2
					C143.2,396.4,140.5,396.6,140,396.5z"/>
			</g>
		</g>
	</g>
	<ellipse class="st0" cx="37.1" cy="384.6" rx="4.3" ry="2.4"/>
	<ellipse class="st0" cx="51" cy="384.6" rx="4.3" ry="2.4"/>
	<ellipse class="st0" cx="64.4" cy="384.6" rx="4.3" ry="2.4"/>
</g>
</svg>
