<?xml version="1.0" encoding="utf-8"?>
<!-- Generator: Adobe Illustrator 19.0.0, SVG Export Plug-In . SVG Version: 6.00 Build 0)  -->
<svg version="1.1" id="Layer_1" xmlns="http://www.w3.org/2000/svg" xmlns:xlink="http://www.w3.org/1999/xlink" x="0px" y="0px"
	 viewBox="-166.9 275.9 279.3 242.1" style="enable-background:new -166.9 275.9 279.3 242.1;" xml:space="preserve">
<style type="text/css">
	.st0{fill:#B8BBBD;}
</style>
<g>
	<g>
		<g>
			<path class="st0" d="M-103,478.4C-52.8,478-2.5,479,46.3,479c21.7,0,43.3,0,64.4,0h1.4l0-1.4c0-54.4-0.1-107.7-0.1-160l0-1.2
				l-1.2,0c-78.4,0.1-154.6,0.1-228.6-0.1c-10.3,0-27.2-0.1-37.8-0.1c-21.9,0.1,0.2,1.6,10.7,1.8c65.9,1.4,137.8,1.1,196.1,0.7
				c19.9-0.1,39.7-0.2,59.5-0.3l-0.8-0.8c0.2,53.5,0.1,106.9,0,160l0.8-0.8C18,476.7-74,476.2-165,476.6l1.1,1.1
				c-0.2-45.5-0.5-90.7-1.2-135.6c-0.1-7.2-0.5-37.5-1.1-18c-0.5,20-0.2,59.5-0.1,68.2c0.2,27.7,0.2,56.2,0.2,85.4l0,1l1,0
				C-144.6,478.6-123.9,478.6-103,478.4z M-121,478c0.9,0.2-6,0.6-7.2,0.3C-129.1,478.2-122.2,477.8-121,478z"/>
		</g>
	</g>
</g>
<g>
	<g>
		<g>
			<path class="st0" d="M7.5,478.3c-40.5,0.3-81.1-0.4-120.5-0.4c-17.5,0-34.9,0-52,0h-1.8l0,0.9c0,13,0.1,25.7,0.1,38.2l0,0.9
				l1.7,0c82.4-0.1,161.5-0.2,237.5,0c8.3,0,22,0.1,30.5,0c17.7-0.1-0.2-1.1-8.7-1.2c-53.2-0.9-111.3-0.7-158.3-0.4
				c-33.8,0.2-67.5,0.3-101.1,0.3l0.9,0.4c0.1-12.8,0.1-25.5,0.2-38.2l-1,0.5c92.9,0.2,185,0.6,275.5,0l-0.9-0.5
				c0.3,9.5,0.6,18.9,1.1,28.3c0.1,2.9,0.7,15.2,1.4,7.3c0.7-8.1,0.2-24.1,0.1-27.6c0-2.6-0.1-5.3-0.1-8l0-0.8l-1.6,0
				C77.3,478.2,42.6,478.1,7.5,478.3z M22,478.6c-0.8-0.1,4.9-0.4,5.8-0.2C28.5,478.5,22.9,478.8,22,478.6z"/>
		</g>
	</g>
</g>
<g>
	<g>
		<g>
			<path class="st0" d="M7.4,276.4c-40.2,0.3-80.4-0.4-119.4-0.4c-17.3,0-34.6,0-51.5,0h-1.8l0,1c0,13.7,0.1,27.2,0.1,40.4l0,0.9
				l1.7,0c81.7-0.1,160-0.2,235.4,0c8.2,0,21.8,0.1,30.2,0c17.5-0.1-0.2-1.1-8.6-1.3c-52.7-1-110.2-0.8-156.8-0.5
				c-33.5,0.2-66.9,0.3-100.2,0.3l0.8,0.5c0.1-13.5,0.1-26.9,0.2-40.4l-1,0.5c92.1,0.2,183.3,0.6,273,0l-0.9-0.5
				c0.3,10,0.6,20,1.1,29.9c0.1,3.1,0.7,16,1.4,7.7c0.7-8.5,0.2-25.4,0.1-29.1c0-2.8-0.1-5.5-0.1-8.5l0-0.8l-1.5,0
				C76.6,276.2,42.2,276.1,7.4,276.4z M21.7,276.6c-0.7-0.1,4.8-0.4,5.8-0.2C28.2,276.5,22.7,276.8,21.7,276.6z"/>
		</g>
	</g>
</g>
</svg>
