
<!-- Generator: Adobe Illustrator 16.0.0, SVG Export Plug-In . SVG Version:
6.00 Build 0) -->
<svg contentScriptType="text/ecmascript" zoomAndPan="magnify"
     xmlns:xlink="http://www.w3.org/1999/xlink" contentStyleType="text/css"
     id="Layer_1" enable-background="new 0 0 140.167 41.667" version="1.1"
     xml:space="preserve" width="140.167px" preserveAspectRatio="xMidYMid meet"
     viewBox="0 0 140.167 41.667" height="41.667px"
     xmlns="http://www.w3.org/2000/svg" x="0px" y="0px">
    <g>
        <g>
            <g>
                <path fill="#000000"
                      d="M87.43,1.563C67.281,1.816,47.085,1.186,27.514,1.172c-8.692,0-17.336,0-25.847,0.001H0.761l0.001,0.905     c0.017,12.917,0.034,25.602,0.051,38l0.001,0.855l0.853-0.001c40.995-0.069,80.292-0.158,118.09,0.03     c4.13,0.021,10.926,0.065,15.16,0.039c8.799-0.059-0.095-1.067-4.305-1.211c-26.43-0.899-55.316-0.732-78.684-0.438     c-16.793,0.211-33.556,0.292-50.263,0.3l0.426,0.426c0.026-12.697,0.053-25.37,0.08-38L1.667,2.583     c46.197,0.187,91.963,0.588,137-0.04l-0.467-0.466c0.131,9.43,0.309,18.817,0.541,28.17c0.072,2.885,0.362,15.088,0.702,7.234     c0.349-8.04,0.104-23.95,0.069-27.433c-0.02-2.603-0.041-5.222-0.063-7.972l-0.006-0.789l-0.777,0.005     C122.151,1.396,104.903,1.343,87.43,1.563z M94.643,1.821c-0.375-0.126,2.419-0.393,2.894-0.232     C97.912,1.714,95.117,1.981,94.643,1.821z"/></g></g></g></svg>